<?xml version="1.0" encoding="UTF-8"?>
<svg width="400" height="300" viewBox="0 0 400 300" xmlns="http://www.w3.org/2000/svg">
  <!-- SEO Services - Search Optimization & Analytics -->
  <g stroke="currentColor" stroke-width="2" fill="none" stroke-linecap="round" stroke-linejoin="round">
    <!-- Search magnifier -->
    <circle cx="150" cy="120" r="40" stroke-width="3"/>
    <path d="M180 150 L220 190" stroke-width="4" stroke-linecap="round"/>
    
    <!-- Website/page inside magnifier -->
    <rect x="125" y="105" width="50" height="30" rx="3" stroke-width="1.5"/>
    <line x1="130" y1="115" x2="165" y2="115" stroke-width="1"/>
    <line x1="130" y1="120" x2="160" y2="120" stroke-width="1"/>
    <line x1="130" y1="125" x2="155" y2="125" stroke-width="1"/>
    
    <!-- SEO elements around -->
    <!-- Keywords -->
    <rect x="250" y="80" width="60" height="25" rx="12" stroke-width="2"/>
    <text x="280" y="97" text-anchor="middle" font-size="10" fill="currentColor" font-family="Arial">Keywords</text>
    
    <!-- Analytics graph -->
    <rect x="280" y="130" width="80" height="50" rx="5" stroke-width="2"/>
    <polyline points="290,170 300,160 310,155 320,150 330,145 340,140 350,135" stroke-width="2" fill="none"/>
    <path d="M345 140 L350 135 L345 130" stroke-width="1.5" fill="currentColor"/>
    
    <!-- Ranking indicators -->
    <circle cx="320" cy="50" r="15" stroke-width="2"/>
    <text x="320" y="55" text-anchor="middle" font-size="12" fill="currentColor" font-family="Arial">#1</text>
    
    <!-- Content optimization -->
    <rect x="50" y="180" width="70" height="40" rx="5" stroke-width="2"/>
    <line x1="60" y1="195" x2="110" y2="195" stroke-width="1.5"/>
    <line x1="60" y1="205" x2="100" y2="205" stroke-width="1.5"/>
    
    <!-- Link building -->
    <path d="M80 160 Q100 140 120 120" stroke-width="2" stroke-dasharray="5,3"/>
    <circle cx="80" cy="160" r="5" stroke-width="1.5"/>
    <circle cx="120" cy="120" r="5" stroke-width="1.5"/>
    
    <!-- Search results -->
    <rect x="240" y="200" width="100" height="60" rx="5" stroke-width="2"/>
    <line x1="250" y1="215" x2="320" y2="215" stroke-width="1.5"/>
    <line x1="250" y1="225" x2="310" y2="225" stroke-width="1"/>
    <line x1="250" y1="235" x2="315" y2="235" stroke-width="1"/>
    <line x1="250" y1="245" x2="300" y2="245" stroke-width="1"/>
    
    <!-- Traffic arrows -->
    <path d="M200 50 L240 50" stroke-width="2"/>
    <path d="M235 45 L240 50 L235 55" stroke-width="2" fill="currentColor"/>
    
    <path d="M200 250 L160 220" stroke-width="2"/>
    <path d="M165 225 L160 220 L155 225" stroke-width="2" fill="currentColor"/>
    
    <!-- Speed indicator -->
    <arc cx="350" cy="220" r="20" stroke-width="2.5"/>
    <path d="M335 235 Q350 220 365 235" stroke-width="3"/>
  </g>
</svg>