<svg xmlns="http://www.w3.org/2000/svg" viewBox="0 0 48 48" fill="none">
  <!-- AI Consulting icon - Outlined -->
  
  <!-- Central brain/neural network -->
  <circle cx="24" cy="24" r="7" stroke="url(#aiGrad1)" stroke-width="1.5" fill="none"/>
  
  <!-- Neural nodes -->
  <circle cx="24" cy="16" r="1.5" stroke="url(#aiGrad1)" stroke-width="1.2" fill="none"/>
  <circle cx="32" cy="24" r="1.5" stroke="url(#aiGrad1)" stroke-width="1.2" fill="none"/>
  <circle cx="24" cy="32" r="1.5" stroke="url(#aiGrad1)" stroke-width="1.2" fill="none"/>
  <circle cx="16" cy="24" r="1.5" stroke="url(#aiGrad1)" stroke-width="1.2" fill="none"/>
  
  <!-- Secondary nodes -->
  <circle cx="20" cy="20" r="1" stroke="url(#aiGrad1)" stroke-width="1" fill="none"/>
  <circle cx="28" cy="20" r="1" stroke="url(#aiGrad1)" stroke-width="1" fill="none"/>
  <circle cx="28" cy="28" r="1" stroke="url(#aiGrad1)" stroke-width="1" fill="none"/>
  <circle cx="20" cy="28" r="1" stroke="url(#aiGrad1)" stroke-width="1" fill="none"/>
  
  <!-- Neural connections -->
  <path d="M24 17.5 L20.8 20.2 M24 17.5 L27.2 20.2 M30.5 24 L28.8 20.8 M30.5 24 L28.8 27.2 M24 30.5 L27.2 27.8 M24 30.5 L20.8 27.8 M17.5 24 L20.8 27.2 M17.5 24 L20.8 20.8" 
        stroke="url(#aiGrad1)" stroke-width="0.8" opacity="0.6"/>
  
  <!-- Outer intelligence indicators -->
  <circle cx="12" cy="12" r="1" stroke="url(#aiGrad1)" stroke-width="1" fill="none"/>
  <circle cx="36" cy="12" r="1" stroke="url(#aiGrad1)" stroke-width="1" fill="none"/>
  <circle cx="36" cy="36" r="1" stroke="url(#aiGrad1)" stroke-width="1" fill="none"/>
  <circle cx="12" cy="36" r="1" stroke="url(#aiGrad1)" stroke-width="1" fill="none"/>
  
  <!-- Data streams -->
  <path d="M13 13 L18.5 18.5 M35 13 L29.5 18.5 M35 35 L29.5 29.5 M13 35 L18.5 29.5" 
        stroke="url(#aiGrad1)" stroke-width="0.8" opacity="0.4" stroke-dasharray="1.5,1.5"/>
  
  <!-- AI thinking pattern -->
  <path d="M6 24 Q10 20 14 24 Q18 28 22 24" 
        stroke="url(#aiGrad1)" stroke-width="1.2" fill="none" opacity="0.5"/>
  <path d="M26 24 Q30 20 34 24 Q38 28 42 24" 
        stroke="url(#aiGrad1)" stroke-width="1.2" fill="none" opacity="0.5"/>
  
  <!-- Processing indicators -->
  <path d="M24 8 L24 12" stroke="url(#aiGrad1)" stroke-width="1" opacity="0.6"/>
  <path d="M24 36 L24 40" stroke="url(#aiGrad1)" stroke-width="1" opacity="0.6"/>
  <path d="M8 24 L12 24" stroke="url(#aiGrad1)" stroke-width="1" opacity="0.6"/>
  <path d="M36 24 L40 24" stroke="url(#aiGrad1)" stroke-width="1" opacity="0.6"/>
  
  <!-- Central processing indicator -->
  <circle cx="24" cy="24" r="0.8" stroke="url(#aiGrad1)" stroke-width="1.5" fill="none"/>
  
  <defs>
    <linearGradient id="aiGrad1" x1="0%" y1="0%" x2="100%" y2="100%">
      <stop offset="0%" style="stop-color:#1aeae2"/>
      <stop offset="100%" style="stop-color:#2566cf"/>
    </linearGradient>
  </defs>
</svg>