<svg xmlns="http://www.w3.org/2000/svg" viewBox="0 0 48 48" fill="none">
  <!-- Cloud Migration icon - Outlined -->
  
  <!-- Main cloud -->
  <path d="M36 22c0-5.5-4.5-10-10-10-3.5 0-6.5 1.8-8.5 4.5-1-0.3-2-0.5-3-0.5-2.5 0-4.5 2-4.5 4.5 0 0.8 0.2 1.5 0.5 2.2-1.5 1-2.5 2.7-2.5 4.8 0 2.8 2.2 5 5 5h21c2.8 0 5-2.2 5-5s-2.2-5-3-5z" 
        stroke="url(#cloudGrad1)" stroke-width="1.5" fill="none"/>
  
  <!-- Data/servers moving to cloud -->
  <rect x="8" y="32" width="4" height="6" stroke="url(#cloudGrad1)" stroke-width="1.2" fill="none" rx="0.5"/>
  <rect x="14" y="34" width="4" height="4" stroke="url(#cloudGrad1)" stroke-width="1.2" fill="none" rx="0.5"/>
  <rect x="20" y="33" width="4" height="5" stroke="url(#cloudGrad1)" stroke-width="1.2" fill="none" rx="0.5"/>
  
  <!-- Server details -->
  <line x1="9" y1="34" x2="11" y2="34" stroke="url(#cloudGrad1)" stroke-width="0.8"/>
  <line x1="9" y1="36" x2="11" y2="36" stroke="url(#cloudGrad1)" stroke-width="0.8"/>
  <line x1="15" y1="35.5" x2="17" y2="35.5" stroke="url(#cloudGrad1)" stroke-width="0.8"/>
  <line x1="21" y1="35" x2="23" y2="35" stroke="url(#cloudGrad1)" stroke-width="0.8"/>
  
  <!-- Upload arrows -->
  <path d="M10 30 L14 18" stroke="url(#cloudGrad1)" stroke-width="1.2" stroke-linecap="round"/>
  <path d="M16 32 L20 20" stroke="url(#cloudGrad1)" stroke-width="1.2" stroke-linecap="round"/>
  <path d="M22 31 L26 19" stroke="url(#cloudGrad1)" stroke-width="1.2" stroke-linecap="round"/>
  
  <!-- Arrow heads -->
  <path d="M12 20 L14 18 L16 20" stroke="url(#cloudGrad1)" stroke-width="1.2" 
        fill="none" stroke-linecap="round" stroke-linejoin="round"/>
  <path d="M18 22 L20 20 L22 22" stroke="url(#cloudGrad1)" stroke-width="1.2" 
        fill="none" stroke-linecap="round" stroke-linejoin="round"/>
  <path d="M24 21 L26 19 L28 21" stroke="url(#cloudGrad1)" stroke-width="1.2" 
        fill="none" stroke-linecap="round" stroke-linejoin="round"/>
  
  <!-- Cloud connection points -->
  <circle cx="30" cy="16" r="1" stroke="url(#cloudGrad1)" stroke-width="1" fill="none"/>
  <circle cx="34" cy="18" r="0.8" stroke="url(#cloudGrad1)" stroke-width="1" fill="none"/>
  <circle cx="26" cy="14" r="0.8" stroke="url(#cloudGrad1)" stroke-width="1" fill="none"/>
  
  <defs>
    <linearGradient id="cloudGrad1" x1="0%" y1="0%" x2="100%" y2="100%">
      <stop offset="0%" style="stop-color:#1aeae2"/>
      <stop offset="100%" style="stop-color:#2566cf"/>
    </linearGradient>
  </defs>
</svg>