<svg xmlns="http://www.w3.org/2000/svg" viewBox="0 0 48 48" fill="none">
  <!-- Leadership/Management icon - Outlined -->
  
  <!-- Central figure (leader) -->
  <circle cx="24" cy="16" r="3.5" stroke="url(#grad1)" stroke-width="1.5" fill="none"/>
  <path d="M24 21.5c-2.5 0-5 1.2-5 3.5v1.5c0 0.8 0.4 1.5 1 1.5h8c0.6 0 1-0.7 1-1.5V25c0-2.3-2.5-3.5-5-3.5z" 
        stroke="url(#grad1)" stroke-width="1.5" fill="none"/>
  
  <!-- Team members around -->
  <circle cx="12" cy="32" r="2" stroke="url(#grad1)" stroke-width="1.2" fill="none"/>
  <circle cx="36" cy="32" r="2" stroke="url(#grad1)" stroke-width="1.2" fill="none"/>
  <circle cx="18" cy="38" r="1.5" stroke="url(#grad1)" stroke-width="1.2" fill="none"/>
  <circle cx="30" cy="38" r="1.5" stroke="url(#grad1)" stroke-width="1.2" fill="none"/>
  
  <!-- Connection lines -->
  <path d="M24 25 L16 30 M24 25 L32 30 M16 30 L20 36 M32 30 L28 36" 
        stroke="url(#grad1)" stroke-width="1" opacity="0.6" stroke-dasharray="2,2"/>
  
  <!-- Leadership symbol -->
  <path d="M21 12 L24 8 L27 12" stroke="url(#grad1)" stroke-width="1.5" fill="none" 
        stroke-linecap="round" stroke-linejoin="round"/>
  
  <!-- Organizational structure -->
  <rect x="10" y="40" width="28" height="0.5" stroke="url(#grad1)" stroke-width="0.8" opacity="0.4"/>
  <path d="M14 40 L14 42 M24 40 L24 42 M34 40 L34 42" 
        stroke="url(#grad1)" stroke-width="0.8" opacity="0.4"/>
  
  <defs>
    <linearGradient id="grad1" x1="0%" y1="0%" x2="100%" y2="100%">
      <stop offset="0%" style="stop-color:#1aeae2"/>
      <stop offset="100%" style="stop-color:#2566cf"/>
    </linearGradient>
  </defs>
</svg>