<svg xmlns="http://www.w3.org/2000/svg" viewBox="0 0 48 48" fill="none">
  <!-- SEO Services icon - Outlined -->
  
  <!-- Search magnifying glass -->
  <circle cx="20" cy="20" r="8" stroke="url(#seoGrad1)" stroke-width="1.5" fill="none"/>
  <path d="M26.5 26.5 L35 35" stroke="url(#seoGrad1)" stroke-width="1.5" stroke-linecap="round"/>
  
  <!-- Search handle detail -->
  <circle cx="35" cy="35" r="2" stroke="url(#seoGrad1)" stroke-width="1.2" fill="none"/>
  
  <!-- SEO elements inside lens -->
  <path d="M16 18 L24 18" stroke="url(#seoGrad1)" stroke-width="1" opacity="0.7"/>
  <path d="M16 20 L22 20" stroke="url(#seoGrad1)" stroke-width="1" opacity="0.7"/>
  <path d="M16 22 L20 22" stroke="url(#seoGrad1)" stroke-width="1" opacity="0.7"/>
  
  <!-- Rankings/graph lines -->
  <path d="M14 24 L16 22 L18 24 L20 20 L22 22 L24 18 L26 20" 
        stroke="url(#seoGrad1)" stroke-width="1.2" fill="none" opacity="0.6"/>
  
  <!-- Keywords/tags around lens -->
  <rect x="8" y="8" width="6" height="3" rx="1.5" stroke="url(#seoGrad1)" stroke-width="1" fill="none"/>
  <rect x="32" y="12" width="8" height="3" rx="1.5" stroke="url(#seoGrad1)" stroke-width="1" fill="none"/>
  <rect x="6" y="32" width="7" height="3" rx="1.5" stroke="url(#seoGrad1)" stroke-width="1" fill="none"/>
  
  <!-- Tag labels -->
  <circle cx="10" cy="9.5" r="0.5" stroke="url(#seoGrad1)" stroke-width="0.8" fill="none"/>
  <circle cx="34" cy="13.5" r="0.5" stroke="url(#seoGrad1)" stroke-width="0.8" fill="none"/>
  <circle cx="8" cy="33.5" r="0.5" stroke="url(#seoGrad1)" stroke-width="0.8" fill="none"/>
  
  <!-- Traffic/analytics arrows -->
  <path d="M38 8 L42 12 L38 16" stroke="url(#seoGrad1)" stroke-width="1.2" fill="none" opacity="0.5"/>
  <path d="M40 10 L44 10" stroke="url(#seoGrad1)" stroke-width="1" opacity="0.5"/>
  
  <path d="M4 40 L8 36 L4 32" stroke="url(#seoGrad1)" stroke-width="1.2" fill="none" opacity="0.5"/>
  <path d="M6 38 L2 38" stroke="url(#seoGrad1)" stroke-width="1" opacity="0.5"/>
  
  <!-- Optimization indicators -->
  <path d="M30 6 L32 4 L34 6" stroke="url(#seoGrad1)" stroke-width="1" opacity="0.6"/>
  <path d="M32 5 L32 8" stroke="url(#seoGrad1)" stroke-width="1" opacity="0.6"/>
  
  <path d="M6 16 L8 14 L10 16" stroke="url(#seoGrad1)" stroke-width="1" opacity="0.6"/>
  <path d="M8 15 L8 18" stroke="url(#seoGrad1)" stroke-width="1" opacity="0.6"/>
  
  <!-- Search result indicators -->
  <circle cx="42" cy="24" r="1" stroke="url(#seoGrad1)" stroke-width="1" fill="none" opacity="0.5"/>
  <circle cx="6" cy="24" r="1" stroke="url(#seoGrad1)" stroke-width="1" fill="none" opacity="0.5"/>
  
  <!-- Digital connection dots -->
  <circle cx="12" cy="44" r="0.8" stroke="url(#seoGrad1)" stroke-width="1" fill="none" opacity="0.4"/>
  <circle cx="44" cy="44" r="0.8" stroke="url(#seoGrad1)" stroke-width="1" fill="none" opacity="0.4"/>
  <circle cx="44" cy="4" r="0.8" stroke="url(#seoGrad1)" stroke-width="1" fill="none" opacity="0.4"/>
  <circle cx="4" cy="4" r="0.8" stroke="url(#seoGrad1)" stroke-width="1" fill="none" opacity="0.4"/>
  
  <!-- Connection lines -->
  <path d="M12 44 Q24 40 44 44" stroke="url(#seoGrad1)" stroke-width="0.8" fill="none" opacity="0.3" stroke-dasharray="1,2"/>
  <path d="M44 4 Q40 24 44 44" stroke="url(#seoGrad1)" stroke-width="0.8" fill="none" opacity="0.3" stroke-dasharray="1,2"/>
  
  <defs>
    <linearGradient id="seoGrad1" x1="0%" y1="0%" x2="100%" y2="100%">
      <stop offset="0%" style="stop-color:#1aeae2"/>
      <stop offset="100%" style="stop-color:#2566cf"/>
    </linearGradient>
  </defs>
</svg>