<svg xmlns="http://www.w3.org/2000/svg" width="120" height="120" viewBox="0 0 120 120" fill="none">
  <!-- CEO Portrait - Outlined -->
  
  <!-- Main portrait circle -->
  <circle cx="60" cy="60" r="55" stroke="url(#ceoGrad)" stroke-width="2" fill="none"/>
  
  <!-- Professional head/face -->
  <circle cx="60" cy="45" r="18" stroke="url(#ceoGrad)" stroke-width="1.5" fill="none"/>
  
  <!-- Professional attire/suit -->
  <path d="M32 88 Q45 78 60 78 Q75 78 88 88 L88 108 L32 108 Z" 
        stroke="url(#ceoGrad)" stroke-width="1.5" fill="none"/>
  
  <!-- Suit details -->
  <path d="M60 78 L60 95" stroke="url(#ceoGrad)" stroke-width="1" opacity="0.7"/>
  <path d="M52 85 L68 85" stroke="url(#ceoGrad)" stroke-width="1" opacity="0.5"/>
  
  <!-- Leadership indicators -->
  <g opacity="0.6">
    <path d="M40 35 L45 30 L50 35" stroke="url(#ceoGrad)" stroke-width="1" fill="none"/>
    <path d="M70 35 L75 30 L80 35" stroke="url(#ceoGrad)" stroke-width="1" fill="none"/>
  </g>
  
  <!-- Professional accessories -->
  <circle cx="48" cy="50" r="1.5" stroke="url(#ceoGrad)" stroke-width="1" fill="none" opacity="0.7"/>
  <circle cx="72" cy="50" r="1.5" stroke="url(#ceoGrad)" stroke-width="1" fill="none" opacity="0.7"/>
  
  <!-- Excellence indicators -->
  <g opacity="0.4">
    <circle cx="25" cy="25" r="1" stroke="url(#ceoGrad)" stroke-width="1" fill="none"/>
    <circle cx="95" cy="25" r="1" stroke="url(#ceoGrad)" stroke-width="1" fill="none"/>
    <circle cx="25" cy="95" r="1" stroke="url(#ceoGrad)" stroke-width="1" fill="none"/>
    <circle cx="95" cy="95" r="1" stroke="url(#ceoGrad)" stroke-width="1" fill="none"/>
  </g>
  
  <!-- Connection lines -->
  <path d="M25 25 Q35 35 45 45" stroke="url(#ceoGrad)" stroke-width="0.8" opacity="0.3" stroke-dasharray="1,2"/>
  <path d="M95 25 Q85 35 75 45" stroke="url(#ceoGrad)" stroke-width="0.8" opacity="0.3" stroke-dasharray="1,2"/>
  
  <!-- Professional framework -->
  <rect x="15" y="15" width="90" height="90" rx="10" stroke="url(#ceoGrad)" stroke-width="1" fill="none" opacity="0.2"/>
  
  <defs>
    <linearGradient id="ceoGrad" x1="0%" y1="0%" x2="100%" y2="100%">
      <stop offset="0%" style="stop-color:#1aeae2"/>
      <stop offset="100%" style="stop-color:#2566cf"/>
    </linearGradient>
  </defs>
</svg>