<svg xmlns="http://www.w3.org/2000/svg" width="120" height="120" viewBox="0 0 120 120" fill="none">
  <!-- CTO Portrait - Outlined -->
  
  <!-- Main portrait circle -->
  <circle cx="60" cy="60" r="55" stroke="url(#ctoGrad)" stroke-width="2" fill="none"/>
  
  <!-- Technical head/face -->
  <circle cx="60" cy="45" r="18" stroke="url(#ctoGrad)" stroke-width="1.5" fill="none"/>
  
  <!-- Technical attire -->
  <path d="M32 88 Q45 78 60 78 Q75 78 88 88 L88 108 L32 108 Z" 
        stroke="url(#ctoGrad)" stroke-width="1.5" fill="none"/>
  
  <!-- Tech details -->
  <path d="M60 78 L60 95" stroke="url(#ctoGrad)" stroke-width="1" opacity="0.7"/>
  
  <!-- Technical indicators -->
  <g opacity="0.6">
    <rect x="45" y="82" width="6" height="4" rx="1" stroke="url(#ctoGrad)" stroke-width="1" fill="none"/>
    <rect x="69" y="82" width="6" height="4" rx="1" stroke="url(#ctoGrad)" stroke-width="1" fill="none"/>
  </g>
  
  <!-- Technical accessories/glasses -->
  <circle cx="48" cy="50" r="6" stroke="url(#ctoGrad)" stroke-width="1.2" fill="none" opacity="0.8"/>
  <circle cx="72" cy="50" r="6" stroke="url(#ctoGrad)" stroke-width="1.2" fill="none" opacity="0.8"/>
  <path d="M54 50 L66 50" stroke="url(#ctoGrad)" stroke-width="1" opacity="0.8"/>
  
  <!-- Innovation indicators -->
  <g opacity="0.5">
    <path d="M25 30 L30 25 L35 30 L30 35 Z" stroke="url(#ctoGrad)" stroke-width="1" fill="none"/>
    <path d="M85 30 L90 25 L95 30 L90 35 Z" stroke="url(#ctoGrad)" stroke-width="1" fill="none"/>
  </g>
  
  <!-- Tech connection points -->
  <g opacity="0.4">
    <circle cx="20" cy="20" r="1.5" stroke="url(#ctoGrad)" stroke-width="1" fill="none"/>
    <circle cx="100" cy="20" r="1.5" stroke="url(#ctoGrad)" stroke-width="1" fill="none"/>
    <circle cx="20" cy="100" r="1.5" stroke="url(#ctoGrad)" stroke-width="1" fill="none"/>
    <circle cx="100" cy="100" r="1.5" stroke="url(#ctoGrad)" stroke-width="1" fill="none"/>
  </g>
  
  <!-- Tech connection lines -->
  <path d="M20 20 Q40 30 45 45" stroke="url(#ctoGrad)" stroke-width="0.8" opacity="0.3" stroke-dasharray="1,2"/>
  <path d="M100 20 Q80 30 75 45" stroke="url(#ctoGrad)" stroke-width="0.8" opacity="0.3" stroke-dasharray="1,2"/>
  
  <!-- Technical framework -->
  <path d="M15 15 L105 15 L105 105 L15 105 Z" stroke="url(#ctoGrad)" stroke-width="1" fill="none" opacity="0.2" stroke-dasharray="3,3"/>
  
  <!-- Digital elements -->
  <g opacity="0.3">
    <path d="M30 60 L25 55 L30 50" stroke="url(#ctoGrad)" stroke-width="1" fill="none"/>
    <path d="M90 60 L95 55 L90 50" stroke="url(#ctoGrad)" stroke-width="1" fill="none"/>
  </g>
  
  <defs>
    <linearGradient id="ctoGrad" x1="0%" y1="0%" x2="100%" y2="100%">
      <stop offset="0%" style="stop-color:#1aeae2"/>
      <stop offset="100%" style="stop-color:#2566cf"/>
    </linearGradient>
  </defs>
</svg>