<svg xmlns="http://www.w3.org/2000/svg" viewBox="0 0 32 32" fill="none">
  <!-- IT Expert Favicon - Outlined -->
  
  <!-- Central IT symbol -->
  <circle cx="16" cy="16" r="12" stroke="url(#faviconGrad)" stroke-width="1.5" fill="none"/>
  
  <!-- Tech connection points -->
  <circle cx="16" cy="8" r="2" stroke="url(#faviconGrad)" stroke-width="1.2" fill="none"/>
  <circle cx="24" cy="16" r="2" stroke="url(#faviconGrad)" stroke-width="1.2" fill="none"/>
  <circle cx="16" cy="24" r="2" stroke="url(#faviconGrad)" stroke-width="1.2" fill="none"/>
  <circle cx="8" cy="16" r="2" stroke="url(#faviconGrad)" stroke-width="1.2" fill="none"/>
  
  <!-- Connection lines -->
  <path d="M16 10 L16 14" stroke="url(#faviconGrad)" stroke-width="1.2"/>
  <path d="M22 16 L18 16" stroke="url(#faviconGrad)" stroke-width="1.2"/>
  <path d="M16 22 L16 18" stroke="url(#faviconGrad)" stroke-width="1.2"/>
  <path d="M10 16 L14 16" stroke="url(#faviconGrad)" stroke-width="1.2"/>
  
  <!-- Central processing core -->
  <circle cx="16" cy="16" r="3" stroke="url(#faviconGrad)" stroke-width="1.5" fill="none"/>
  <circle cx="16" cy="16" r="1" stroke="url(#faviconGrad)" stroke-width="1.2" fill="none"/>
  
  <!-- External innovation indicators -->
  <circle cx="6" cy="6" r="1" stroke="url(#faviconGrad)" stroke-width="1" fill="none" opacity="0.7"/>
  <circle cx="26" cy="6" r="1" stroke="url(#faviconGrad)" stroke-width="1" fill="none" opacity="0.7"/>
  <circle cx="26" cy="26" r="1" stroke="url(#faviconGrad)" stroke-width="1" fill="none" opacity="0.7"/>
  <circle cx="6" cy="26" r="1" stroke="url(#faviconGrad)" stroke-width="1" fill="none" opacity="0.7"/>
  
  <!-- Data flow -->
  <path d="M6 6 Q11 11 13 13" stroke="url(#faviconGrad)" stroke-width="0.8" opacity="0.5" stroke-dasharray="1,1"/>
  <path d="M26 6 Q21 11 19 13" stroke="url(#faviconGrad)" stroke-width="0.8" opacity="0.5" stroke-dasharray="1,1"/>
  
  <defs>
    <linearGradient id="faviconGrad" x1="0%" y1="0%" x2="100%" y2="100%">
      <stop offset="0%" style="stop-color:#1aeae2"/>
      <stop offset="100%" style="stop-color:#2566cf"/>
    </linearGradient>
  </defs>
</svg>
