<?xml version="1.0" encoding="UTF-8" standalone="no"?>
<svg version="1.1" id="enhanced-hero-bg" width="1920" height="1080" viewBox="0 0 1920 1080" xmlns="http://www.w3.org/2000/svg">
  <defs>
    <linearGradient id="primaryGradient" x1="0%" y1="0%" x2="100%" y2="100%">
      <stop offset="0%" style="stop-color:#1aeae2;stop-opacity:0.3" />
      <stop offset="100%" style="stop-color:#2566cf;stop-opacity:0.2" />
    </linearGradient>
    <linearGradient id="accentGradient" x1="0%" y1="0%" x2="100%" y2="0%">
      <stop offset="0%" style="stop-color:#1aeae2;stop-opacity:0.8" />
      <stop offset="50%" style="stop-color:#1d96d5;stop-opacity:0.6" />
      <stop offset="100%" style="stop-color:#2566cf;stop-opacity:0.8" />
    </linearGradient>
    <radialGradient id="depthGradient" cx="50%" cy="50%" r="70%">
      <stop offset="0%" style="stop-color:#ffffff;stop-opacity:0.1" />
      <stop offset="100%" style="stop-color:#1aeae2;stop-opacity:0.05" />
    </radialGradient>
    <pattern id="techPattern" x="0" y="0" width="100" height="100" patternUnits="userSpaceOnUse">
      <circle cx="50" cy="50" r="1" fill="#1aeae2" opacity="0.3"/>
      <circle cx="25" cy="25" r="0.5" fill="#2566cf" opacity="0.2"/>
      <circle cx="75" cy="75" r="0.5" fill="#2566cf" opacity="0.2"/>
    </pattern>
  </defs>
  <rect width="100%" height="100%" fill="#fdfdfd"/>
  <rect width="100%" height="100%" fill="url(#primaryGradient)"/>
  <circle cx="1600" cy="200" r="150" fill="none" stroke="#1aeae2" stroke-width="2" opacity="0.4"/>
  <circle cx="1600" cy="200" r="100" fill="none" stroke="#1aeae2" stroke-width="1" opacity="0.6"/>
  <circle cx="200" cy="800" r="120" fill="none" stroke="#2566cf" stroke-width="2" opacity="0.3"/>
  <path d="M 0,300 Q 480,280 960,300 T 1920,300" stroke="#1aeae2" stroke-width="3" fill="none" opacity="0.5"/>
  <path d="M 0,600 Q 480,620 960,600 T 1920,600" stroke="#2566cf" stroke-width="2" fill="none" opacity="0.4"/>
  <path d="M 1200,0 L 1920,200 L 1700,400 L 1000,200 Z" fill="url(#accentGradient)" opacity="0.15"/>
  <rect width="100%" height="100%" fill="url(#techPattern)" opacity="0.3"/>
  <rect width="100%" height="100%" fill="url(#depthGradient)"/>
  <g opacity="0.4">
    <polygon points="1600,0 1920,0 1920,200" fill="#1aeae2" opacity="0.1"/>
    <polygon points="0,800 320,800 0,1080" fill="#2566cf" opacity="0.1"/>
  </g>
  <g opacity="0.2">
    <polygon points="100,100 130,85 160,100 160,130 130,145 100,130" fill="none" stroke="#1aeae2" stroke-width="1"/>
    <polygon points="1800,900 1830,885 1860,900 1860,930 1830,945 1800,930" fill="none" stroke="#2566cf" stroke-width="1"/>
  </g>
</svg>