<?xml version="1.0" encoding="UTF-8" standalone="no"?>
<!-- Created with Inkscape (http://www.inkscape.org/) -->

<svg
   version="1.1"
   id="svg1"
   width="90"
   height="90"
   viewBox="0 0 90 90"
   sodipodi:docname="NICT_logo_color2.pdf"
   xmlns:inkscape="http://www.inkscape.org/namespaces/inkscape"
   xmlns:sodipodi="http://sodipodi.sourceforge.net/DTD/sodipodi-0.dtd"
   xmlns:xlink="http://www.w3.org/1999/xlink"
   xmlns="http://www.w3.org/2000/svg"
   xmlns:svg="http://www.w3.org/2000/svg">
  <defs
     id="defs1">
    <linearGradient
       id="linearGradient41"
       inkscape:collect="always">
      <stop
         style="stop-color:#1aeae2;stop-opacity:1;"
         offset="0"
         id="stop41" />
      <stop
         style="stop-color:#2566cf;stop-opacity:1;"
         offset="1"
         id="stop42" />
    </linearGradient>
    <linearGradient
       id="linearGradient39"
       inkscape:collect="always">
      <stop
         style="stop-color:#1aeae2;stop-opacity:1;"
         offset="0"
         id="stop39" />
      <stop
         style="stop-color:#2566cf;stop-opacity:1;"
         offset="1"
         id="stop40" />
    </linearGradient>
    <linearGradient
       id="linearGradient37"
       inkscape:collect="always">
      <stop
         style="stop-color:#1aeae2;stop-opacity:1;"
         offset="0"
         id="stop37" />
      <stop
         style="stop-color:#2566cf;stop-opacity:1;"
         offset="1"
         id="stop38" />
    </linearGradient>
    <clipPath
       clipPathUnits="userSpaceOnUse"
       id="clipPath8">
      <path
         d="M 0,3000 H 3000 V 0 H 0 Z"
         transform="translate(-974.13602,-1142.9763)"
         id="path8" />
    </clipPath>
    <clipPath
       clipPathUnits="userSpaceOnUse"
       id="clipPath10">
      <path
         d="M 0,3000 H 3000 V 0 H 0 Z"
         id="path10" />
    </clipPath>
    <clipPath
       clipPathUnits="userSpaceOnUse"
       id="clipPath12">
      <path
         d="M 0,3000 H 3000 V 0 H 0 Z"
         transform="translate(-1831.8169,-999.67352)"
         id="path12" />
    </clipPath>
    <clipPath
       clipPathUnits="userSpaceOnUse"
       id="clipPath14">
      <path
         d="M 0,3000 H 3000 V 0 H 0 Z"
         transform="translate(-2005.6261,-1143.4626)"
         id="path14" />
    </clipPath>
    <clipPath
       clipPathUnits="userSpaceOnUse"
       id="clipPath16">
      <path
         d="M 0,3000 H 3000 V 0 H 0 Z"
         transform="translate(-828.10502,-787.52604)"
         id="path16" />
    </clipPath>
    <clipPath
       clipPathUnits="userSpaceOnUse"
       id="clipPath18">
      <path
         d="M 0,3000 H 3000 V 0 H 0 Z"
         transform="translate(-925.35242,-794.66559)"
         id="path18" />
    </clipPath>
    <clipPath
       clipPathUnits="userSpaceOnUse"
       id="clipPath20">
      <path
         d="M 0,3000 H 3000 V 0 H 0 Z"
         transform="translate(-1076.8882,-787.52604)"
         id="path20" />
    </clipPath>
    <clipPath
       clipPathUnits="userSpaceOnUse"
       id="clipPath22">
      <path
         d="M 0,3000 H 3000 V 0 H 0 Z"
         transform="translate(-1212.6084,-787.52604)"
         id="path22" />
    </clipPath>
    <clipPath
       clipPathUnits="userSpaceOnUse"
       id="clipPath24">
      <path
         d="M 0,3000 H 3000 V 0 H 0 Z"
         id="path24" />
    </clipPath>
    <clipPath
       clipPathUnits="userSpaceOnUse"
       id="clipPath26">
      <path
         d="M 0,3000 H 3000 V 0 H 0 Z"
         transform="translate(-1506.7017,-812.86585)"
         id="path26" />
    </clipPath>
    <clipPath
       clipPathUnits="userSpaceOnUse"
       id="clipPath28">
      <path
         d="M 0,3000 H 3000 V 0 H 0 Z"
         transform="translate(-1709.3214,-787.52604)"
         id="path28" />
    </clipPath>
    <clipPath
       clipPathUnits="userSpaceOnUse"
       id="clipPath30">
      <path
         d="M 0,3000 H 3000 V 0 H 0 Z"
         transform="translate(-1797.5923,-794.66559)"
         id="path30" />
    </clipPath>
    <clipPath
       clipPathUnits="userSpaceOnUse"
       id="clipPath32">
      <path
         d="M 0,3000 H 3000 V 0 H 0 Z"
         transform="translate(-2085.2773,-794.66559)"
         id="path32" />
    </clipPath>
    <clipPath
       clipPathUnits="userSpaceOnUse"
       id="clipPath34">
      <path
         d="M 0,3000 H 3000 V 0 H 0 Z"
         transform="translate(-2210.5225,-777.58562)"
         id="path34" />
    </clipPath>
    <clipPath
       clipPathUnits="userSpaceOnUse"
       id="clipPath36">
      <path
         d="M 0,3000 H 3000 V 0 H 0 Z"
         id="path36" />
    </clipPath>
    <linearGradient
       inkscape:collect="always"
       xlink:href="#linearGradient37"
       id="linearGradient38"
       x1="1.7840778"
       y1="29.475333"
       x2="60.13182"
       y2="29.475333"
       gradientUnits="userSpaceOnUse" />
    <linearGradient
       inkscape:collect="always"
       xlink:href="#linearGradient39"
       id="linearGradient40"
       x1="40.108447"
       y1="26.405256"
       x2="50.870355"
       y2="26.405256"
       gradientUnits="userSpaceOnUse" />
    <linearGradient
       inkscape:collect="always"
       xlink:href="#linearGradient41"
       id="linearGradient42"
       x1="30.570033"
       y1="24.211228"
       x2="89.189694"
       y2="24.211228"
       gradientUnits="userSpaceOnUse" />
  </defs>
  <sodipodi:namedview
     id="namedview1"
     pagecolor="#505050"
     bordercolor="#eeeeee"
     borderopacity="1"
     inkscape:showpageshadow="0"
     inkscape:pageopacity="0"
     inkscape:pagecheckerboard="0"
     inkscape:deskcolor="#505050">
    <inkscape:page
       x="0"
       y="0"
       inkscape:label="1"
       id="page1"
       width="90"
       height="90"
       margin="934.86133 1048.6533 936.69336 1047.144"
       bleed="0"
       inkscape:export-filename="..\..\..\..\..\..\..\Freelance\!!!Portfolio Thema\public\NICT_logo_color2.svg"
       inkscape:export-xdpi="96"
       inkscape:export-ydpi="96" />
  </sodipodi:namedview>
  <g
     id="layer-MC0"
     inkscape:groupmode="layer"
     inkscape:label="Layer 1">
    <path
       id="path2"
       d="m 17.427629,12.143278 1.46059,1.359026 C 23.718954,8.9046125 29.087899,6.2640516 34.202536,5.5666404 v 0 L 33.77675,4.1318626 C 28.355366,4.7396398 22.631043,7.385928 17.427629,12.143278 M 40.01036,6.7939959 c 3.607955,0.4789183 6.890391,2.01525 9.583715,4.3308711 v 0 c 2.463664,2.124944 4.479766,4.941004 5.941492,8.099651 v 0 l 0.697062,-0.958619 C 54.708044,14.894041 52.603231,11.864822 50.00443,9.5179515 v 0 C 47.142368,6.9468557 43.648175,5.1729232 39.762465,4.5027078 v 0 z M 35.159986,6.7102647 C 29.482088,7.4291967 23.464244,10.711198 18.365172,16.482128 v 0 l 3.148033,2.488711 c 4.291055,-5.237335 9.494871,-8.413401 14.462213,-9.2958131 v 0 c 0.623782,-0.11088 1.243489,-0.1854561 1.856849,-0.2255771 v 0 L 37.252173,6.5640387 c -0.688511,0.010333 -1.386642,0.058444 -2.092187,0.146226 m 6.247571,3.7102203 c 2.789917,0.385065 5.370815,1.524137 7.535081,3.255977 v 0 c 0.861123,0.688198 1.664264,1.475638 2.401874,2.340407 v 0 l 0.36827,-0.902761 C 50.947317,14.196402 50.112045,13.355969 49.21378,12.614554 v 0 C 46.94858,10.746322 44.247642,9.4852457 41.309226,9.0056543 v 0 z m -5.047369,0.653185 c -3.525456,0.712532 -7.165274,2.675286 -10.458198,5.780318 v 0 l 0.494189,0.549668 c 3.180565,-3.048497 6.708559,-4.996866 10.130476,-5.72502 v 0 c 0.670808,-0.144031 1.338746,-0.241257 2.000069,-0.29425 v 0 l -0.111423,-0.590974 c -0.678892,0.04727 -1.365132,0.139878 -2.055113,0.280258 m 0.386373,1.404718 c -1.164531,0.264294 -2.341019,0.676844 -3.511763,1.232918 v 0 l 1.099803,2.440491 c 1.025919,-0.53927 2.059789,-0.951032 3.084573,-1.228365 v 0 c 1.645359,-0.454866 3.296598,-0.568946 4.87489,-0.38827 v 0 c 1.128593,-0.05097 2.289316,0.07637 3.448168,0.360116 v 0 l 0.174349,-1.500535 c -1.792253,-0.829195 -3.783907,-1.285688 -5.858458,-1.29086 v 0 c -0.01202,0 -0.02405,0 -0.03607,0 v 0 c -1.075219,0 -2.172415,0.121221 -3.275624,0.374557 m 10.416181,2.792628 c 0.06546,0.03859 0.12839,0.08155 0.193187,0.121335 v 0 c 1.583102,0.587712 3.130867,1.457877 4.554449,2.561992 v 0 c -0.950235,-1.275802 -2.02846,-2.403798 -3.211961,-3.321728 v 0 C 48.294406,14.318238 47.876303,14.02646 47.445374,13.757893 v 0 z m -24.21647,8.985046 c -1.17522,1.951517 -2.173751,4.098661 -2.96714,6.374777 v 0 l 2.079495,0.477828 c 0.699134,-2.082377 1.581967,-4.051324 2.623987,-5.843131 v 0 c 1.754778,-3.04304 3.968275,-5.584185 6.359126,-7.46501 v 0 l -1.023247,-1.530765 c -2.638815,1.976641 -5.096868,4.688791 -7.072221,7.986301 M 4.5318178,54.818803 5.9760416,54.118277 C 3.7403002,42.463554 6.8109127,29.571354 13.576788,19.734173 v 0 L 12.561155,19.176071 C 5.441238,29.337228 2.1893962,42.705076 4.5318178,54.818803 M 55.528953,21.67591 c 1.928661,2.551429 3.264,7.569385 3.264,7.569385 v 0 c -0.826855,-6.500502 -2.104144,-8.899522 -2.104144,-8.899522 v 0 z M 6.7197301,46.632955 c 1.2274568,-0.353179 2.4219142,-0.696828 3.5846409,-1.031326 v 0 C 10.182995,37.690112 12.373513,29.64783 16.300372,22.988912 v 0 L 13.655613,21.711597 C 9.1507959,28.997135 6.6085075,37.857433 6.7197301,46.632955 m 8.5169129,-12.619576 1.825921,0.131287 c 0.9324,-3.787158 2.398668,-7.36146 4.298738,-10.486496 v 0 l -1.419708,-0.803626 c -2.073284,3.316447 -3.678897,7.118065 -4.704951,11.158835 m 1.093856,5.644608 c -0.31276,3.19331 -0.214295,6.34082 0.318438,9.283411 v 0 l 1.038478,-0.503716 c -0.508752,-2.825148 -0.605078,-5.848768 -0.311424,-8.917619 v 0 z m -6.9838444,8.927244 c 0.1034737,1.245112 0.2669342,2.467229 0.4909158,3.660044 v 0 l 1.5028076,-0.728927 c -0.212024,-1.138575 -0.367134,-2.305171 -0.465932,-3.493529 v 0 z"
       style="fill:url(#linearGradient38);stroke:none;stroke-width:1.33334" />
    <path
       id="path4"
       d="M 83.993792,-0.43172511 C 86.229533,11.222988 83.158987,24.115226 76.393045,33.952406 v 0 l 1.015633,0.558098 C 84.528595,24.349346 87.780436,10.981561 85.438015,-1.1322279 v 0 z m -5.36427,2.60195221 c 0.212091,1.1385654 0.367269,2.3051708 0.465999,3.4935814 v 0 L 80.623312,5.1013248 C 80.519905,3.8562131 80.356378,2.6340824 80.132396,1.441286 v 0 z m -6.346971,3.0786753 c 0.508753,2.8251062 0.605079,5.8487636 0.311424,8.9176056 v 0 l 1.045559,-0.13791 c 0.312627,-3.193315 0.214229,-6.3408347 -0.31857,-9.2834535 v 0 z m 7.382978,2.8360678 C 79.787038,15.996468 77.596453,24.038796 73.669661,30.697601 v 0 l 2.644694,1.277353 c 4.504815,-7.2855 7.047104,-16.145897 6.935948,-24.9213246 v 0 c -1.22759,0.3532029 -2.421914,0.6967953 -3.584774,1.0313408 m -11.056863,21.9434448 1.419708,0.803602 c 2.073282,-3.316442 3.678896,-7.118042 4.704949,-11.158821 v 0 l -1.825921,-0.131277 c -0.932398,3.787158 -2.398667,7.361441 -4.298736,10.486496 m -3.321315,-1.607442 c -1.754778,3.043059 -3.968275,5.584204 -6.359127,7.465028 v 0 l 1.023248,1.530728 c 2.638814,-1.976599 5.096868,-4.688716 7.072221,-7.986287 v 0 c 1.175219,-1.951508 2.173751,-4.098651 2.967138,-6.374767 v 0 l -2.079495,-0.477847 c -0.6992,2.082401 -1.581966,4.051286 -2.623985,5.843145 m -32.262705,4.996662 1.159854,-1.33017 c -1.928593,-2.551292 -3.263999,-7.569248 -3.263999,-7.569248 v 0 c 0.826854,6.50037 2.104145,8.899418 2.104145,8.899418 m 0.712692,2.003103 c 1.524584,3.371773 3.629398,6.400939 6.2282,8.747881 v 0 c 2.862061,2.571015 6.356254,4.345019 10.241965,5.015249 v 0 L 49.959606,46.892589 C 46.351652,46.41367 43.069148,44.877396 40.375892,42.561652 v 0 C 37.912228,40.436745 35.896059,37.6207 34.4344,34.462048 v 0 z m 20.257211,8.590802 c -0.623781,0.110899 -1.243489,0.185527 -1.856783,0.225591 v 0 l 0.580027,2.88541 c 0.688512,-0.01043 1.386642,-0.05841 2.092189,-0.146316 v 0 c 5.677963,-0.718875 11.695741,-4.000896 16.794813,-9.771811 v 0 L 68.456694,34.715802 C 64.16564,39.953133 58.961958,43.129137 53.994549,44.01154 M 41.271484,39.053946 c 0.403942,0.31449 0.822045,0.60627 1.252908,0.874769 v 0 l 0.282766,-1.513185 c -0.06546,-0.03841 -0.12839,-0.08145 -0.19312,-0.121329 v 0 c -1.583102,-0.587684 -3.130933,-1.457854 -4.554449,-2.56196 v 0 c 0.950236,1.275788 2.028526,2.403742 3.211895,3.321705 m 12.171829,2.953969 c -0.67081,0.144041 -1.338747,0.241333 -2.000003,0.294198 v 0 l 0.111356,0.59105 c 0.678892,-0.04741 1.365066,-0.139868 2.055045,-0.28021 v 0 c 3.525524,-0.71257 7.165276,-2.675324 10.458199,-5.780399 v 0 l -0.494122,-0.549659 c -3.180566,3.048511 -6.70856,4.9969 -10.130475,5.72502 m -0.89252,-3.2448 c -1.64536,0.45488 -3.296599,0.568955 -4.874891,0.388359 v 0 c -1.128525,0.05092 -2.289314,-0.07638 -3.448168,-0.360149 v 0 l -0.174416,1.500478 c 1.792388,0.829206 3.783975,1.285698 5.858459,1.290913 v 0 c 1.086642,0.0047 2.196196,-0.118342 3.311628,-0.374515 v 0 c 1.164465,-0.264279 2.341019,-0.676867 3.511696,-1.232926 v 0 l -1.099735,-2.440488 c -1.025919,0.539228 -2.059789,0.95101 -3.084573,1.228328 M 38.257184,38.57242 c 0.765399,0.917725 1.600738,1.75812 2.499002,2.499611 v 0 c 2.265133,1.868213 4.96614,3.129303 7.904555,3.608885 v 0 l -0.09833,-1.41485 C 45.772494,42.881073 43.191595,41.741977 41.02733,40.010123 v 0 c -0.861124,-0.688199 -1.664331,-1.475681 -2.401874,-2.340446 v 0 z m 17.510247,9.547548 0.425785,1.434716 C 61.6146,48.946945 67.338857,46.300638 72.542339,41.543269 v 0 l -1.460591,-1.358998 c -4.830667,4.597682 -10.19968,7.238253 -15.314317,7.935697"
       style="fill:url(#linearGradient42);stroke:none;stroke-width:1.33334" />
    <path
       id="path6"
       d="m 39.913833,26.405277 c 0,1.30901 0.534537,2.564501 1.485975,3.490144 v 0 c 0.951437,0.925691 2.241887,1.445764 3.587513,1.445764 v 0 c 1.345493,0 2.635943,-0.520073 3.587447,-1.445764 v 0 c 0.951438,-0.925643 1.485975,-2.181134 1.485975,-3.490144 v 0 c 0,-2.726089 -2.271547,-4.93595 -5.073422,-4.93595 v 0 c -2.802008,0 -5.073488,2.209861 -5.073488,4.93595"
       style="fill:url(#linearGradient40);stroke:none;stroke-width:1.33334" />
    <path
       id="path7"
       d="m 0,0 v -133.867 c 0,-1.874 0.189,-7.376 0.577,-16.82 0.329,-7.978 0.516,-15.756 0.559,-23.171 l -11.195,21.177 -20.295,36.67 L -98.331,0 h -89.613 v -233.375 h 58.132 v 133.303 c 0,1.647 -0.189,7.082 -0.577,16.615 -0.329,8.069 -0.516,16.064 -0.559,23.819 l 8.131,-16.286 16.808,-32.159 74.55,-125.292 H 58.514 V 0 Z"
       style="fill:#02020b;fill-opacity:1;fill-rule:nonzero;stroke:none;stroke-width:23.4021"
       transform="matrix(0.05776349,0,0,-0.05619761,14.609254,63.748085)"
       clip-path="url(#clipPath8)" />
    <path
       id="path9"
       d="m 1467.012,910.088 h 58.896 v 233.375 h -58.896 z"
       style="fill:#02020b;fill-opacity:1;fill-rule:nonzero;stroke:none;stroke-width:23.4021"
       transform="matrix(0.05776349,0,0,-0.05619761,-41.660254,127.9806)"
       clip-path="url(#clipPath10)" />
    <path
       id="path11"
       d="m 0,0 v -15.032 c 0,-12.757 -2.775,-20.874 -8.25,-24.124 -4.34,-2.579 -15.572,-5.653 -44.432,-5.653 -34.584,0 -43.841,6.059 -46.282,9.672 -2.675,3.957 -7.164,18.522 -7.164,71.602 0,40.41 4.85,51.399 7.739,54.35 2.877,2.937 13.435,7.863 51.819,7.863 25.903,0 34.479,-3.223 37.283,-5.144 4.327,-2.964 6.613,-11.136 6.613,-23.63 L -1.967,59.219 H 55.84 v 10.016 c 0,31.362 -6.432,51.529 -19.665,61.654 -12.815,9.805 -37.65,14.572 -75.923,14.572 -52.407,0 -85.742,-6.322 -101.911,-19.329 -16.493,-13.274 -24.511,-40.088 -24.511,-81.976 V 4.029 c 0,-39.898 7.688,-65.304 23.501,-77.671 15.431,-12.079 46.615,-17.95 95.335,-17.95 43.014,0 70.605,4.972 84.351,15.201 14.209,10.571 21.115,31.517 21.115,64.035 V 0 Z"
       style="fill:#02020b;fill-opacity:1;fill-rule:nonzero;stroke:none;stroke-width:23.4021"
       transform="matrix(0.05776349,0,0,-0.05619761,64.151879,71.801367)"
       clip-path="url(#clipPath12)" />
    <path
       id="path13"
       d="m 0,0 v -47.452 h 73.726 v -185.923 h 58.896 v 185.923 h 75.254 V 0 Z"
       style="fill:#02020b;fill-opacity:1;fill-rule:nonzero;stroke:none;stroke-width:23.4021"
       transform="matrix(0.05776349,0,0,-0.05619761,74.191706,63.720732)"
       clip-path="url(#clipPath14)" />
    <path
       id="path15"
       d="m 0,0 c -10.974,0 -18.311,-1.61 -22.015,-4.83 -3.707,-3.22 -5.557,-9.684 -5.557,-19.39 0,-11.294 1.744,-18.598 5.237,-21.91 3.49,-3.314 11.221,-4.97 23.19,-4.97 11.541,0 19.092,1.725 22.655,5.18 3.561,3.452 5.344,10.872 5.344,22.26 0,9.24 -1.997,15.492 -5.985,18.76 C 18.879,-1.634 11.254,0 0,0 M 43.388,35.14 V -58.24 H 28.854 l 0.641,8.54 c -2.565,-3.36 -6.379,-5.788 -11.435,-7.28 -5.059,-1.492 -12.076,-2.24 -21.052,-2.24 -15.249,0 -25.685,2.402 -31.312,7.21 -5.631,4.806 -8.443,13.741 -8.443,26.81 0,12.506 2.779,21.186 8.336,26.04 5.557,4.851 15.672,7.28 30.35,7.28 18.381,0 29.208,-3.08 32.488,-9.24 l 0.427,36.26 z"
       style="fill:#02020b;fill-opacity:1;fill-rule:nonzero;stroke:none;stroke-width:23.4021"
       transform="matrix(0.05776349,0,0,-0.05619761,6.1739712,83.723547)"
       clip-path="url(#clipPath16)" />
    <path
       id="path17"
       d="m 0,0 h 14.534 l -1.496,-7.56 c 3.276,3.266 7.123,5.6 11.541,7 4.415,1.4 10.186,2.1 17.313,2.1 9.544,0 16.527,-1.494 20.946,-4.48 4.415,-2.988 6.625,-7.7 6.625,-14.14 v -4.48 h -14.32 v 1.68 3.5 c 0,6.532 -5.487,9.8 -16.457,9.8 -9.121,0 -15.426,-1.424 -18.915,-4.27 -3.494,-2.848 -5.237,-7.958 -5.237,-15.33 v -39.2 H 0 Z"
       style="fill:#02020b;fill-opacity:1;fill-rule:nonzero;stroke:none;stroke-width:23.4021"
       transform="matrix(0.05776349,0,0,-0.05619761,11.791348,83.322287)"
       clip-path="url(#clipPath18)" />
    <path
       id="path19"
       d="m 0,0 c -12.968,0 -21.019,-1.378 -24.152,-4.13 -3.136,-2.754 -4.702,-9.87 -4.702,-21.35 0,-11.574 1.53,-18.738 4.595,-21.49 3.063,-2.754 11.148,-4.13 24.259,-4.13 13.392,0 21.587,1.4 24.579,4.2 2.993,2.8 4.489,10.36 4.489,22.68 0,10.825 -1.603,17.57 -4.809,20.23 C 21.053,-1.33 12.964,0 0,0 m 0,8.12 c 18.238,0 30.17,-2.03 35.801,-6.09 5.627,-4.06 8.442,-12.67 8.442,-25.83 0,-15.12 -2.672,-24.804 -8.015,-29.05 -5.343,-4.248 -17.419,-6.37 -36.228,-6.37 -18.381,0 -30.317,2.1 -35.8,6.3 -5.487,4.2 -8.229,13.346 -8.229,27.44 0,14.092 2.742,23.216 8.229,27.37 5.483,4.152 17.419,6.23 35.8,6.23"
       style="fill:#02020b;fill-opacity:1;fill-rule:nonzero;stroke:none;stroke-width:23.4021"
       transform="matrix(0.05776349,0,0,-0.05619761,20.544534,83.723547)"
       clip-path="url(#clipPath20)" />
    <path
       id="path21"
       d="m 0,0 c -11.114,0 -18.455,-1.704 -22.014,-5.11 -3.564,-3.409 -5.344,-10.384 -5.344,-20.93 0,-10.08 1.887,-16.778 5.664,-20.09 3.774,-3.314 11.575,-4.97 23.404,-4.97 10.97,0 18.201,1.61 21.694,4.83 3.49,3.22 5.236,9.916 5.236,20.09 0,11.106 -1.71,18.246 -5.129,21.42 C 20.091,-1.588 12.253,0 0,0 m -42.105,7.14 h 14.533 l -0.641,-8.26 c 2.849,3.172 6.873,5.506 12.076,7 5.2,1.492 12.216,2.24 21.053,2.24 14.818,0 25.007,-2.474 30.564,-7.42 5.557,-4.949 8.335,-14 8.335,-27.16 0,-12.134 -2.772,-20.628 -8.312,-25.48 -5.54,-4.854 -15.412,-7.28 -29.618,-7.28 -9.378,0 -16.445,0.63 -21.204,1.89 -4.759,1.26 -8.629,3.521 -11.611,6.79 l -0.428,-35.84 h -14.747 z"
       style="fill:#02020b;fill-opacity:1;fill-rule:nonzero;stroke:none;stroke-width:23.4021"
       transform="matrix(0.05776349,0,0,-0.05619761,28.384224,83.723547)"
       clip-path="url(#clipPath22)" />
    <path
       id="path23"
       d="m 1403.043,729.286 h -16.03 v 93.38 h 16.03 z"
       style="fill:#02020b;fill-opacity:1;fill-rule:nonzero;stroke:none;stroke-width:23.4021"
       transform="matrix(0.05776349,0,0,-0.05619761,-41.660254,127.9806)"
       clip-path="url(#clipPath24)" />
    <path
       id="path25"
       d="M 0,0 V -83.58 H -16.03 V 0 H -62.41 V 9.8 H 46.167 V 0 Z"
       style="fill:#02020b;fill-opacity:1;fill-rule:nonzero;stroke:none;stroke-width:23.4021"
       transform="matrix(0.05776349,0,0,-0.05619761,45.372091,82.299496)"
       clip-path="url(#clipPath26)" />
    <path
       id="path27"
       d="m 0,0 c -12.968,0 -21.02,-1.378 -24.152,-4.13 -3.136,-2.754 -4.702,-9.87 -4.702,-21.35 0,-11.574 1.529,-18.738 4.595,-21.49 3.063,-2.754 11.148,-4.13 24.259,-4.13 13.392,0 21.587,1.4 24.579,4.2 2.992,2.8 4.488,10.36 4.488,22.68 0,10.825 -1.602,17.57 -4.808,20.23 C 21.053,-1.33 12.964,0 0,0 m 0,8.12 c 18.237,0 30.169,-2.03 35.8,-6.09 5.627,-4.06 8.443,-12.67 8.443,-25.83 0,-15.12 -2.672,-24.804 -8.015,-29.05 -5.344,-4.248 -17.419,-6.37 -36.228,-6.37 -18.381,0 -30.317,2.1 -35.8,6.3 -5.488,4.2 -8.229,13.346 -8.229,27.44 0,14.092 2.741,23.216 8.229,27.37 5.483,4.152 17.419,6.23 35.8,6.23"
       style="fill:#02020b;fill-opacity:1;fill-rule:nonzero;stroke:none;stroke-width:23.4021"
       transform="matrix(0.05776349,0,0,-0.05619761,57.076116,83.723547)"
       clip-path="url(#clipPath28)" />
    <path
       id="path29"
       d="M 0,0 H 14.534 L 14.32,-8.96 c 2.421,3.452 6.268,5.972 11.541,7.56 5.27,1.586 12.611,2.38 22.015,2.38 13.963,0 23.437,-1.634 28.427,-4.9 4.986,-3.268 7.48,-9.568 7.48,-18.9 V -65.38 H 69.25 v 41.72 2.52 c 0,5.506 -1.604,9.216 -4.81,11.13 -3.206,1.912 -9.297,2.87 -18.274,2.87 -11.401,0 -19.416,-1.424 -24.045,-4.27 -4.632,-2.848 -6.946,-7.724 -6.946,-14.63 V -65.38 H 0 Z"
       style="fill:#02020b;fill-opacity:1;fill-rule:nonzero;stroke:none;stroke-width:23.4021"
       transform="matrix(0.05776349,0,0,-0.05619761,62.174921,83.322287)"
       clip-path="url(#clipPath30)" />
    <path
       id="path31"
       d="m 0,0 v -65.38 h -14.534 l 1.069,8.54 v 0.28 c -5.019,-6.534 -16.134,-9.8 -33.339,-9.8 -12.19,0 -21.006,1.772 -26.456,5.32 -5.45,3.546 -8.172,9.38 -8.172,17.5 V 0 h 14.534 v -43.54 c 0,-5.788 1.459,-9.684 4.381,-11.69 2.919,-2.008 8.656,-3.01 17.205,-3.01 11.826,0 19.911,1.47 24.259,4.41 4.345,2.94 6.519,8.376 6.519,16.31 V 0 Z"
       style="fill:#02020b;fill-opacity:1;fill-rule:nonzero;stroke:none;stroke-width:23.4021"
       transform="matrix(0.05776349,0,0,-0.05619761,78.792648,83.322287)"
       clip-path="url(#clipPath32)" />
    <path
       id="path33"
       d="m 0,0 h -14.534 c 0,4.666 -1.389,7.56 -4.168,8.68 -2.778,1.12 -9.868,1.68 -21.266,1.68 -11.115,0 -18.241,-0.56 -21.373,-1.68 -3.137,-1.12 -4.702,-3.734 -4.702,-7.84 0,-4.668 0.924,-7.7 2.778,-9.1 1.85,-1.4 5.841,-2.1 11.969,-2.1 l 11.969,-0.42 14.961,-0.42 c 9.832,0 16.848,-1.47 21.053,-4.41 4.201,-2.94 6.305,-7.724 6.305,-14.35 0,-7.468 -2.952,-12.554 -8.849,-15.26 -5.898,-2.708 -17.093,-4.06 -33.577,-4.06 -15.92,0 -26.934,1.306 -33.045,3.92 -6.111,2.612 -9.167,7.326 -9.167,14.14 v 3.78 h 14.961 l -0.213,-3.22 c 0,-4.388 1.743,-7.304 5.236,-8.75 3.49,-1.448 10.506,-2.17 21.053,-2.17 11.541,0 19.199,0.77 22.976,2.31 3.774,1.54 5.664,4.69 5.664,9.45 0,4.106 -0.928,6.86 -2.779,8.26 -1.853,1.4 -5.7,2.1 -11.541,2.1 -22.943,0 -37.761,1.166 -44.457,3.5 -6.699,2.332 -10.046,7.372 -10.046,15.12 0,7.56 2.743,12.6 8.229,15.12 5.484,2.52 16.491,3.78 33.022,3.78 15.246,0 25.648,-1.12 31.206,-3.36 C -2.778,12.46 0,8.166 0,1.82 Z"
       style="fill:#02020b;fill-opacity:1;fill-rule:nonzero;stroke:none;stroke-width:23.4021"
       transform="matrix(0.05776349,0,0,-0.05619761,86.027262,84.282168)"
       clip-path="url(#clipPath34)" />
    <path
       id="path35"
       d="m 1344.556,1003.972 h -186.667 v 51.333 h 186.667 z"
       style="fill:#02020b;fill-opacity:1;fill-rule:nonzero;stroke:none;stroke-width:23.4021"
       transform="matrix(0.05776349,0,0,-0.05619761,-41.660254,127.9806)"
       clip-path="url(#clipPath36)" />
  </g>
</svg>
