<svg xmlns="http://www.w3.org/2000/svg" width="400" height="300" viewBox="0 0 400 300" fill="none">
  <!-- Team collaboration illustration - Outlined -->
  
  <!-- Central collaboration hub -->
  <circle cx="200" cy="150" r="45" stroke="url(#teamGrad)" stroke-width="2" fill="none"/>
  
  <!-- Team members positioned around -->
  <circle cx="140" cy="80" r="18" stroke="url(#teamGrad)" stroke-width="1.5" fill="none"/>
  <circle cx="260" cy="80" r="18" stroke="url(#teamGrad)" stroke-width="1.5" fill="none"/>
  <circle cx="320" cy="150" r="18" stroke="url(#teamGrad)" stroke-width="1.5" fill="none"/>
  <circle cx="260" cy="220" r="18" stroke="url(#teamGrad)" stroke-width="1.5" fill="none"/>
  <circle cx="140" cy="220" r="18" stroke="url(#teamGrad)" stroke-width="1.5" fill="none"/>
  <circle cx="80" cy="150" r="18" stroke="url(#teamGrad)" stroke-width="1.5" fill="none"/>
  
  <!-- Person icons inside circles -->
  <g transform="translate(140,80)">
    <circle cx="0" cy="-5" r="5" stroke="url(#teamGrad)" stroke-width="1" fill="none"/>
    <path d="M-8 8 Q0 2 8 8" stroke="url(#teamGrad)" stroke-width="1" fill="none"/>
  </g>
  
  <g transform="translate(260,80)">
    <circle cx="0" cy="-5" r="5" stroke="url(#teamGrad)" stroke-width="1" fill="none"/>
    <path d="M-8 8 Q0 2 8 8" stroke="url(#teamGrad)" stroke-width="1" fill="none"/>
  </g>
  
  <g transform="translate(320,150)">
    <circle cx="0" cy="-5" r="5" stroke="url(#teamGrad)" stroke-width="1" fill="none"/>
    <path d="M-8 8 Q0 2 8 8" stroke="url(#teamGrad)" stroke-width="1" fill="none"/>
  </g>
  
  <g transform="translate(260,220)">
    <circle cx="0" cy="-5" r="5" stroke="url(#teamGrad)" stroke-width="1" fill="none"/>
    <path d="M-8 8 Q0 2 8 8" stroke="url(#teamGrad)" stroke-width="1" fill="none"/>
  </g>
  
  <g transform="translate(140,220)">
    <circle cx="0" cy="-5" r="5" stroke="url(#teamGrad)" stroke-width="1" fill="none"/>
    <path d="M-8 8 Q0 2 8 8" stroke="url(#teamGrad)" stroke-width="1" fill="none"/>
  </g>
  
  <g transform="translate(80,150)">
    <circle cx="0" cy="-5" r="5" stroke="url(#teamGrad)" stroke-width="1" fill="none"/>
    <path d="M-8 8 Q0 2 8 8" stroke="url(#teamGrad)" stroke-width="1" fill="none"/>
  </g>
  
  <!-- Connection lines -->
  <path d="M155 95 L185 135" stroke="url(#teamGrad)" stroke-width="1" opacity="0.4" stroke-dasharray="2,2"/>
  <path d="M245 95 L215 135" stroke="url(#teamGrad)" stroke-width="1" opacity="0.4" stroke-dasharray="2,2"/>
  <path d="M302 150 L245 150" stroke="url(#teamGrad)" stroke-width="1" opacity="0.4" stroke-dasharray="2,2"/>
  <path d="M245 205 L215 165" stroke="url(#teamGrad)" stroke-width="1" opacity="0.4" stroke-dasharray="2,2"/>
  <path d="M155 205 L185 165" stroke="url(#teamGrad)" stroke-width="1" opacity="0.4" stroke-dasharray="2,2"/>
  <path d="M98 150 L155 150" stroke="url(#teamGrad)" stroke-width="1" opacity="0.4" stroke-dasharray="2,2"/>
  
  <!-- Central collaboration icon -->
  <g transform="translate(200,150)">
    <path d="M-12 -8 L-4 -8 L-4 -16 L4 -16 L4 -8 L12 -8 L12 8 L4 8 L4 16 L-4 16 L-4 8 L-12 8 Z" 
          stroke="url(#teamGrad)" stroke-width="1.2" fill="none"/>
    <circle cx="0" cy="0" r="2" stroke="url(#teamGrad)" stroke-width="1" fill="none"/>
  </g>
  
  <!-- Collaboration indicators -->
  <g opacity="0.6">
    <path d="M50 50 Q70 30 90 50" stroke="url(#teamGrad)" stroke-width="1" fill="none"/>
    <path d="M310 50 Q330 30 350 50" stroke="url(#teamGrad)" stroke-width="1" fill="none"/>
    <path d="M50 250 Q70 270 90 250" stroke="url(#teamGrad)" stroke-width="1" fill="none"/>
    <path d="M310 250 Q330 270 350 250" stroke="url(#teamGrad)" stroke-width="1" fill="none"/>
  </g>
  
  <!-- Tech/communication symbols -->
  <g opacity="0.3">
    <circle cx="60" cy="60" r="1" stroke="url(#teamGrad)" stroke-width="1" fill="none"/>
    <circle cx="340" cy="60" r="1" stroke="url(#teamGrad)" stroke-width="1" fill="none"/>
    <circle cx="60" cy="240" r="1" stroke="url(#teamGrad)" stroke-width="1" fill="none"/>
    <circle cx="340" cy="240" r="1" stroke="url(#teamGrad)" stroke-width="1" fill="none"/>
  </g>
  
  <defs>
    <linearGradient id="teamGrad" x1="0%" y1="0%" x2="100%" y2="100%">
      <stop offset="0%" style="stop-color:#1aeae2"/>
      <stop offset="100%" style="stop-color:#2566cf"/>
    </linearGradient>
  </defs>
</svg>