<svg xmlns="http://www.w3.org/2000/svg" width="80" height="80" viewBox="0 0 80 80" fill="none">
  <!-- Testimonial Portrait 1 - Outlined -->
  
  <!-- Main portrait circle -->
  <circle cx="40" cy="40" r="35" stroke="url(#test1Grad)" stroke-width="2" fill="none"/>
  
  <!-- Professional head -->
  <circle cx="40" cy="30" r="12" stroke="url(#test1Grad)" stroke-width="1.5" fill="none"/>
  
  <!-- Professional attire -->
  <path d="M20 55 Q30 48 40 48 Q50 48 60 55 L60 70 L20 70 Z" 
        stroke="url(#test1Grad)" stroke-width="1.5" fill="none"/>
  
  <!-- Professional details -->
  <path d="M40 48 L40 62" stroke="url(#test1Grad)" stroke-width="1" opacity="0.7"/>
  <path d="M35 56 L45 56" stroke="url(#test1Grad)" stroke-width="1" opacity="0.5"/>
  
  <!-- Character details -->
  <circle cx="36" cy="32" r="1" stroke="url(#test1Grad)" stroke-width="1" fill="none" opacity="0.7"/>
  <circle cx="44" cy="32" r="1" stroke="url(#test1Grad)" stroke-width="1" fill="none" opacity="0.7"/>
  <path d="M37 36 Q40 38 43 36" stroke="url(#test1Grad)" stroke-width="1" fill="none" opacity="0.7"/>
  
  <!-- Professional indicators -->
  <g opacity="0.5">
    <path d="M15 15 L20 10 L25 15" stroke="url(#test1Grad)" stroke-width="1" fill="none"/>
    <path d="M55 15 L60 10 L65 15" stroke="url(#test1Grad)" stroke-width="1" fill="none"/>
  </g>
  
  <!-- Experience markers -->
  <g opacity="0.4">
    <circle cx="12" cy="25" r="1" stroke="url(#test1Grad)" stroke-width="1" fill="none"/>
    <circle cx="68" cy="25" r="1" stroke="url(#test1Grad)" stroke-width="1" fill="none"/>
    <circle cx="12" cy="55" r="1" stroke="url(#test1Grad)" stroke-width="1" fill="none"/>
    <circle cx="68" cy="55" r="1" stroke="url(#test1Grad)" stroke-width="1" fill="none"/>
  </g>
  
  <!-- Professional framework -->
  <rect x="8" y="8" width="64" height="64" rx="8" stroke="url(#test1Grad)" stroke-width="1" fill="none" opacity="0.3"/>
  
  <defs>
    <linearGradient id="test1Grad" x1="0%" y1="0%" x2="100%" y2="100%">
      <stop offset="0%" style="stop-color:#1aeae2"/>
      <stop offset="100%" style="stop-color:#2566cf"/>
    </linearGradient>
  </defs>
</svg>