<svg xmlns="http://www.w3.org/2000/svg" width="80" height="80" viewBox="0 0 80 80" fill="none">
  <!-- Testimonial Portrait 2 - Outlined -->
  
  <!-- Main portrait circle -->
  <circle cx="40" cy="40" r="35" stroke="url(#test2Grad)" stroke-width="2" fill="none"/>
  
  <!-- Professional head -->
  <circle cx="40" cy="30" r="12" stroke="url(#test2Grad)" stroke-width="1.5" fill="none"/>
  
  <!-- Professional attire -->
  <path d="M20 55 Q30 48 40 48 Q50 48 60 55 L60 70 L20 70 Z" 
        stroke="url(#test2Grad)" stroke-width="1.5" fill="none"/>
  
  <!-- Professional details -->
  <path d="M40 48 L40 62" stroke="url(#test2Grad)" stroke-width="1" opacity="0.7"/>
  <path d="M35 56 L45 56" stroke="url(#test2Grad)" stroke-width="1" opacity="0.5"/>
  
  <!-- Character details -->
  <circle cx="36" cy="32" r="1" stroke="url(#test2Grad)" stroke-width="1" fill="none" opacity="0.7"/>
  <circle cx="44" cy="32" r="1" stroke="url(#test2Grad)" stroke-width="1" fill="none" opacity="0.7"/>
  <path d="M37 36 Q40 38 43 36" stroke="url(#test2Grad)" stroke-width="1" fill="none" opacity="0.7"/>
  
  <!-- Leadership indicators -->
  <g opacity="0.5">
    <path d="M15 20 L20 15 L25 20 L20 25 Z" stroke="url(#test2Grad)" stroke-width="1" fill="none"/>
    <path d="M55 20 L60 15 L65 20 L60 25 Z" stroke="url(#test2Grad)" stroke-width="1" fill="none"/>
  </g>
  
  <!-- Success markers -->
  <g opacity="0.4">
    <path d="M10 30 L15 25 L20 30" stroke="url(#test2Grad)" stroke-width="1" fill="none"/>
    <path d="M60 30 L65 25 L70 30" stroke="url(#test2Grad)" stroke-width="1" fill="none"/>
    <path d="M10 50 L15 45 L20 50" stroke="url(#test2Grad)" stroke-width="1" fill="none"/>
    <path d="M60 50 L65 45 L70 50" stroke="url(#test2Grad)" stroke-width="1" fill="none"/>
  </g>
  
  <!-- Achievement framework -->
  <circle cx="40" cy="40" r="28" stroke="url(#test2Grad)" stroke-width="1" fill="none" opacity="0.3" stroke-dasharray="2,2"/>
  
  <defs>
    <linearGradient id="test2Grad" x1="0%" y1="0%" x2="100%" y2="100%">
      <stop offset="0%" style="stop-color:#1aeae2"/>
      <stop offset="100%" style="stop-color:#2566cf"/>
    </linearGradient>
  </defs>
</svg>