<svg xmlns="http://www.w3.org/2000/svg" width="80" height="80" viewBox="0 0 80 80" fill="none">
  <!-- Testimonial Portrait 3 - Outlined -->
  
  <!-- Main portrait circle -->
  <circle cx="40" cy="40" r="35" stroke="url(#test3Grad)" stroke-width="2" fill="none"/>
  
  <!-- Professional head -->
  <circle cx="40" cy="30" r="12" stroke="url(#test3Grad)" stroke-width="1.5" fill="none"/>
  
  <!-- Professional attire -->
  <path d="M20 55 Q30 48 40 48 Q50 48 60 55 L60 70 L20 70 Z" 
        stroke="url(#test3Grad)" stroke-width="1.5" fill="none"/>
  
  <!-- Professional details -->
  <path d="M40 48 L40 62" stroke="url(#test3Grad)" stroke-width="1" opacity="0.7"/>
  <path d="M35 56 L45 56" stroke="url(#test3Grad)" stroke-width="1" opacity="0.5"/>
  
  <!-- Character details -->
  <circle cx="36" cy="32" r="1" stroke="url(#test3Grad)" stroke-width="1" fill="none" opacity="0.7"/>
  <circle cx="44" cy="32" r="1" stroke="url(#test3Grad)" stroke-width="1" fill="none" opacity="0.7"/>
  <path d="M37 36 Q40 38 43 36" stroke="url(#test3Grad)" stroke-width="1" fill="none" opacity="0.7"/>
  
  <!-- Innovation indicators -->
  <g opacity="0.5">
    <rect x="12" y="12" width="8" height="8" rx="2" stroke="url(#test3Grad)" stroke-width="1" fill="none"/>
    <rect x="60" y="12" width="8" height="8" rx="2" stroke="url(#test3Grad)" stroke-width="1" fill="none"/>
    <rect x="12" y="60" width="8" height="8" rx="2" stroke="url(#test3Grad)" stroke-width="1" fill="none"/>
    <rect x="60" y="60" width="8" height="8" rx="2" stroke="url(#test3Grad)" stroke-width="1" fill="none"/>
  </g>
  
  <!-- Tech leadership markers -->
  <g opacity="0.4">
    <path d="M8 40 L12 36 L16 40 L12 44 Z" stroke="url(#test3Grad)" stroke-width="1" fill="none"/>
    <path d="M64 40 L68 36 L72 40 L68 44 Z" stroke="url(#test3Grad)" stroke-width="1" fill="none"/>
  </g>
  
  <!-- Professional excellence framework -->
  <rect x="5" y="5" width="70" height="70" rx="10" stroke="url(#test3Grad)" stroke-width="1" fill="none" opacity="0.2"/>
  
  <!-- Connection lines -->
  <path d="M16 16 Q28 28 32 32" stroke="url(#test3Grad)" stroke-width="0.8" opacity="0.3" stroke-dasharray="1,2"/>
  <path d="M64 16 Q52 28 48 32" stroke="url(#test3Grad)" stroke-width="0.8" opacity="0.3" stroke-dasharray="1,2"/>
  
  <defs>
    <linearGradient id="test3Grad" x1="0%" y1="0%" x2="100%" y2="100%">
      <stop offset="0%" style="stop-color:#1aeae2"/>
      <stop offset="100%" style="stop-color:#2566cf"/>
    </linearGradient>
  </defs>
</svg>